<svg xmlns="http://www.w3.org/2000/svg" width="320" height="558" fill="none" viewBox="0 0 320 558">
  <path stroke="url(#paint0_linear)" stroke-width="12" d="M76 177v8.928a8 8 0 005.047 7.435l36.906 14.658a8 8 0 015.047 7.435V233"/>
  <path stroke="url(#paint4_linear)" d="M76 168v17.928a8 8 0 005.047 7.435l36.906 14.658a8 8 0 015.047 7.435V241"/>
  <path fill="#ADC2FA" d="M-.866-2.5a1 1 0 011.732 0l1.732 3A1 1 0 011.732 2h-3.464A1 1 0 01-2.598.5l1.732-3z">
    <animateMotion begin="-2s" dur="2s" path="M76 168L76 185.928C76 189.207 78.0002 192.153 81.0471 193.363L117.953 208.021C121 209.231 123 212.178 123 215.456L123 241" repeatCount="indefinite"/>
  </path>
  <rect width="4" height="4" fill="#1A54F2" rx="1" transform="translate(-2 -2)">
    <animateMotion begin="-1.5s" dur="2s" path="M76 168L76 185.928C76 189.207 78.0002 192.153 81.0471 193.363L117.953 208.021C121 209.231 123 212.178 123 215.456L123 241" repeatCount="indefinite"/>
  </rect>
  <rect width="4" height="4" fill="#0932A4" rx="1" transform="translate(-2 -2)">
    <animateMotion begin="-1s" dur="2s" path="M76 168L76 185.928C76 189.207 78.0002 192.153 81.0471 193.363L117.953 208.021C121 209.231 123 212.178 123 215.456L123 241" repeatCount="indefinite"/>
  </rect>
  <circle r="2" fill="#ADC2FA">
    <animateMotion begin="-0.5s" dur="2s" path="M76 168L76 185.928C76 189.207 78.0002 192.153 81.0471 193.363L117.953 208.021C121 209.231 123 212.178 123 215.456L123 241" repeatCount="indefinite"/>
  </circle>
  <path stroke="url(#paint1_linear)" stroke-width="12" d="M244 433v-9.109a8 8 0 00-4.927-7.386l-37.146-15.455a8 8 0 01-4.927-7.386V377"/>
  <path stroke="url(#paint2_linear)" stroke-width="12" d="M76 433v-9.109a8 8 0 014.927-7.386l37.146-15.455a8 8 0 004.927-7.386V377"/>
  <path stroke="url(#paint3_linear)" stroke-width="12" d="M244 177v8.928c0 3.279-2 6.225-5.047 7.435l-36.906 14.658a8 8 0 00-5.047 7.435V233"/>
  <path stroke="url(#paint5_linear)" d="M244 168v17.928c0 3.279-2 6.225-5.047 7.435l-36.906 14.658a8 8 0 00-5.047 7.435V241"/>
  <circle r="2" fill="#ADC2FA">
    <animateMotion begin="-2s" dur="2s" path="M244 168L244 185.928C244 189.207 242 192.153 238.953 193.363L202.047 208.021C199 209.231 197 212.178 197 215.456L197 241" repeatCount="indefinite"/>
  </circle>
  <rect width="4" height="4" fill="#1A54F2" rx="1" transform="translate(-2 -2)">
    <animateMotion begin="-1.5s" dur="2s" path="M244 168L244 185.928C244 189.207 242 192.153 238.953 193.363L202.047 208.021C199 209.231 197 212.178 197 215.456L197 241" repeatCount="indefinite"/>
  </rect>
  <path fill="#ADC2FA" d="M.134-1.5a1 1 0 011.732 0l1.732 3A1 1 0 012.732 3H-.732a1 1 0 01-.866-1.5l1.732-3z">
    <animateMotion begin="-1s" dur="2s" path="M244 168L244 185.928C244 189.207 242 192.153 238.953 193.363L202.047 208.021C199 209.231 197 212.178 197 215.456L197 241" repeatCount="indefinite"/>
  </path>
  <rect width="4" height="4" fill="#0932A4" rx="1" transform="translate(-2 -2)">
    <animateMotion begin="-0.5s" dur="2s" path="M244 168L244 185.928C244 189.207 242 192.153 238.953 193.363L202.047 208.021C199 209.231 197 212.178 197 215.456L197 241" repeatCount="indefinite"/>
  </rect>
  <rect width="152" height="176" fill="url(#paint6_linear)" rx="10"/>
  <rect width="152" height="176" x="168" fill="url(#paint7_linear)" rx="10"/>
  <g filter="url(#filter0_d)">
    <rect width="120" height="40" x="16" y="120" fill="#fff" rx="6"/>
  </g>
  <g filter="url(#filter1_d)">
    <rect width="120" height="64" x="184" y="16" fill="#fff" rx="6"/>
  </g>
  <g filter="url(#filter2_d)">
    <rect width="120" height="64" x="184" y="96" fill="#fff" rx="6"/>
  </g>
  <path fill="#51595D" d="M222.967 34.273h-1.317V43h1.317v-8.727zm3.089 4.84c0-1.043.64-1.64 1.526-1.64.865 0 1.389.567 1.389 1.517V43h1.274v-4.163c0-1.62-.89-2.468-2.228-2.468-.985 0-1.628.456-1.931 1.15h-.081v-1.064h-1.223V43h1.274v-3.886zm8.954-2.658h-1.343v-1.569h-1.274v1.569h-.959v1.022h.959v3.865c-.004 1.19.904 1.764 1.909 1.743.405-.004.678-.08.827-.136l-.23-1.053c-.085.017-.243.056-.448.056-.413 0-.784-.137-.784-.874v-3.6h1.343v-1.023zm4.16 6.677c1.427 0 2.437-.703 2.727-1.768l-1.206-.218c-.23.618-.784.934-1.508.934-1.091 0-1.824-.708-1.858-1.97h4.653v-.45c0-2.366-1.415-3.29-2.898-3.29-1.824 0-3.025 1.389-3.025 3.4 0 2.033 1.184 3.362 3.115 3.362zm-1.841-3.976c.051-.929.724-1.734 1.76-1.734.988 0 1.636.733 1.64 1.734h-3.4zM243.392 43h1.274v-3.997c0-.857.66-1.475 1.564-1.475.264 0 .562.047.665.077v-1.219a5.177 5.177 0 00-.542-.03c-.767 0-1.423.435-1.662 1.138h-.068v-1.04h-1.231V43zm5.879-3.886c0-1.044.64-1.641 1.526-1.641.865 0 1.389.567 1.389 1.517V43h1.274v-4.163c0-1.62-.89-2.468-2.228-2.468-.985 0-1.628.456-1.931 1.15h-.081v-1.064h-1.223V43h1.274v-3.886zm7.803 4.03c1.082 0 1.692-.549 1.935-1.039h.051V43h1.244v-4.347c0-1.904-1.5-2.284-2.54-2.284-1.184 0-2.275.478-2.702 1.67l1.198.273c.187-.464.665-.911 1.521-.911.823 0 1.245.43 1.245 1.171v.03c0 .465-.478.456-1.654.593-1.24.145-2.51.468-2.51 1.956 0 1.286.968 1.994 2.212 1.994zm.277-1.022c-.72 0-1.24-.324-1.24-.954 0-.682.605-.925 1.342-1.023.413-.056 1.394-.166 1.577-.35v.844c0 .776-.618 1.483-1.679 1.483zm5.924-7.85h-1.274V43h1.274v-8.727zm-50.204 23.364c0-2.79-1.67-4.483-3.929-4.483-2.267 0-3.933 1.692-3.933 4.483 0 2.787 1.666 4.483 3.933 4.483 2.259 0 3.929-1.691 3.929-4.483zm-1.304 0c0 2.127-1.125 3.282-2.625 3.282-1.504 0-2.625-1.155-2.625-3.282 0-2.126 1.121-3.28 2.625-3.28 1.5 0 2.625 1.154 2.625 3.28zM214.61 62h1.275v-3.997c0-.857.66-1.475 1.564-1.475.264 0 .562.047.664.077v-1.219a5.157 5.157 0 00-.541-.03c-.767 0-1.423.435-1.662 1.138h-.068v-1.04h-1.232V62zm6.822.128c1.193 0 1.662-.729 1.892-1.147h.106V62h1.245v-8.727h-1.274v3.243h-.077c-.23-.405-.665-1.147-1.884-1.147-1.581 0-2.744 1.249-2.744 3.371 0 2.118 1.146 3.388 2.736 3.388zm.281-1.087c-1.138 0-1.73-1.001-1.73-2.314 0-1.3.579-2.275 1.73-2.275 1.112 0 1.709.907 1.709 2.275 0 1.377-.61 2.314-1.709 2.314zm7.601 1.091c1.428 0 2.438-.703 2.728-1.768l-1.206-.218c-.231.618-.785.934-1.509.934-1.091 0-1.824-.708-1.858-1.97h4.654v-.45c0-2.366-1.415-3.29-2.898-3.29-1.824 0-3.026 1.389-3.026 3.4 0 2.033 1.185 3.362 3.115 3.362zm-1.841-3.976c.052-.929.725-1.734 1.76-1.734.989 0 1.637.733 1.641 1.734h-3.401zM233.536 62h1.274v-3.997c0-.857.661-1.475 1.564-1.475.264 0 .563.047.665.077v-1.219a5.157 5.157 0 00-.541-.03c-.767 0-1.423.435-1.662 1.138h-.068v-1.04h-1.232V62zm12.644-6.435h1.27c-.039-1.397-1.275-2.412-3.047-2.412-1.752 0-3.094 1.002-3.094 2.506 0 1.215.869 1.926 2.271 2.306l1.032.28c.933.248 1.653.555 1.653 1.33 0 .853-.814 1.415-1.935 1.415-1.014 0-1.858-.452-1.934-1.402h-1.321c.085 1.581 1.308 2.557 3.264 2.557 2.049 0 3.23-1.078 3.23-2.557 0-1.572-1.402-2.182-2.51-2.455l-.852-.221c-.682-.175-1.59-.494-1.586-1.33 0-.741.678-1.29 1.752-1.29 1.001 0 1.713.468 1.807 1.273zm3.666 8.89c1.052 0 1.717-.55 2.096-1.581l2.706-7.407-1.376-.012-1.658 5.08h-.068l-1.658-5.08h-1.363l2.394 6.63-.157.435c-.324.87-.78.942-1.479.75l-.307 1.044c.154.068.486.14.87.14zm10.908-7.402c-.265-1.019-1.062-1.684-2.476-1.684-1.479 0-2.527.78-2.527 1.94 0 .928.562 1.546 1.789 1.819l1.108.243c.631.14.925.422.925.83 0 .508-.541.904-1.376.904-.763 0-1.253-.328-1.407-.971l-1.231.187c.213 1.16 1.176 1.811 2.646 1.811 1.581 0 2.676-.84 2.676-2.024 0-.925-.588-1.496-1.789-1.773l-1.04-.238c-.72-.17-1.031-.414-1.027-.857-.004-.503.541-.86 1.265-.86.793 0 1.16.438 1.309.877l1.155-.204zm4.584-1.598h-1.343v-1.569h-1.274v1.569h-.959v1.022h.959v3.865c-.004 1.19.904 1.764 1.909 1.743.405-.004.678-.08.827-.136l-.23-1.053c-.085.017-.243.056-.448.056-.413 0-.784-.137-.784-.874v-3.6h1.343v-1.023zm4.16 6.677c1.427 0 2.437-.703 2.727-1.768l-1.206-.218c-.23.618-.784.934-1.508.934-1.091 0-1.824-.708-1.858-1.97h4.653v-.45c0-2.366-1.415-3.29-2.898-3.29-1.823 0-3.025 1.389-3.025 3.4 0 2.033 1.184 3.362 3.115 3.362zm-1.841-3.976c.051-.929.724-1.734 1.76-1.734.989 0 1.636.733 1.641 1.734h-3.401zM273.72 62h1.274v-4.035c0-.883.618-1.496 1.342-1.496.708 0 1.198.468 1.198 1.18V62h1.27v-4.172c0-.788.481-1.36 1.312-1.36.673 0 1.227.376 1.227 1.262V62h1.275v-4.39c0-1.495-.836-2.24-2.02-2.24-.942 0-1.649.451-1.965 1.15h-.068c-.286-.716-.886-1.15-1.76-1.15-.865 0-1.508.43-1.781 1.15h-.081v-1.066h-1.223V62zM230.691 123h3.345c2.029 0 2.945-1.01 2.945-2.348 0-1.351-.946-2.114-1.811-2.161v-.085c.801-.204 1.47-.75 1.47-1.841 0-1.291-.895-2.292-2.753-2.292h-3.196V123zm1.317-1.129v-2.796h1.947c1.057 0 1.718.682 1.718 1.513 0 .733-.499 1.283-1.764 1.283h-1.901zm0-3.823v-2.655h1.798c1.044 0 1.543.55 1.543 1.275 0 .843-.69 1.38-1.577 1.38h-1.764zm8.337 5.097c1.083 0 1.692-.55 1.935-1.04h.051V123h1.244v-4.347c0-1.904-1.5-2.284-2.539-2.284-1.185 0-2.276.478-2.702 1.671l1.197.272c.188-.464.665-.911 1.522-.911.822 0 1.244.43 1.244 1.171v.03c0 .465-.477.456-1.653.593-1.24.144-2.51.468-2.51 1.956 0 1.287.967 1.994 2.211 1.994zm.277-1.023c-.72 0-1.24-.324-1.24-.954 0-.682.605-.925 1.343-1.023.413-.056 1.393-.166 1.576-.35v.844c0 .776-.618 1.483-1.679 1.483zm5.925-3.008c0-1.044.639-1.641 1.525-1.641.865 0 1.389.567 1.389 1.517V123h1.275v-4.163c0-1.62-.891-2.468-2.229-2.468-.984 0-1.628.456-1.93 1.151h-.081v-1.065h-1.223V123h1.274v-3.886zm5.897 3.886h1.275v-2.322l.635-.635 2.224 2.957h1.564l-2.83-3.737 2.651-2.808h-1.526l-2.608 2.769h-.11v-4.951h-1.275V123zm-28.456 19h1.317v-3.303h1.875l1.773 3.303h1.5l-1.935-3.533c1.07-.396 1.602-1.287 1.602-2.458 0-1.607-.997-2.736-3.021-2.736h-3.111V142zm1.317-4.436v-3.162h1.653c1.3 0 1.837.618 1.837 1.607 0 .984-.537 1.555-1.82 1.555h-1.67zm9.054 4.568c1.428 0 2.438-.703 2.727-1.768l-1.205-.218c-.231.618-.785.934-1.509.934-1.091 0-1.824-.708-1.858-1.969h4.653v-.452c0-2.365-1.414-3.29-2.897-3.29-1.824 0-3.026 1.39-3.026 3.401 0 2.033 1.185 3.362 3.115 3.362zm-1.841-3.976c.051-.929.725-1.734 1.76-1.734.989 0 1.637.733 1.641 1.734h-3.401zm6.063 6.299h1.274v-3.473h.077c.23.417.699 1.146 1.892 1.146 1.585 0 2.736-1.27 2.736-3.388 0-2.122-1.168-3.371-2.749-3.371-1.214 0-1.653.742-1.879 1.147h-.107v-1.061h-1.244v9zm1.249-5.728c0-1.368.596-2.275 1.709-2.275 1.154 0 1.734.976 1.734 2.275 0 1.313-.597 2.314-1.734 2.314-1.096 0-1.709-.937-1.709-2.314zm8.914 3.405c1.846 0 3.052-1.351 3.052-3.375 0-2.037-1.206-3.388-3.052-3.388-1.845 0-3.051 1.351-3.051 3.388 0 2.024 1.206 3.375 3.051 3.375zm.005-1.07c-1.206 0-1.769-1.052-1.769-2.309 0-1.253.563-2.318 1.769-2.318 1.197 0 1.76 1.065 1.76 2.318 0 1.257-.563 2.309-1.76 2.309zm4.469.938h1.274v-3.997c0-.857.661-1.475 1.564-1.475.264 0 .562.047.665.077v-1.219a5.214 5.214 0 00-.541-.029c-.768 0-1.424.434-1.662 1.137h-.069v-1.039h-1.231V142zm8.047-6.545h-1.342v-1.569h-1.274v1.569h-.959v1.022h.959v3.865c-.004 1.189.903 1.765 1.909 1.743.405-.004.678-.081.827-.136l-.23-1.053c-.086.017-.243.056-.448.056-.413 0-.784-.137-.784-.874v-3.601h1.342v-1.022zm6.209 1.598c-.264-1.019-1.061-1.684-2.476-1.684-1.478 0-2.527.78-2.527 1.939 0 .929.563 1.547 1.79 1.82l1.108.243c.631.14.925.422.925.831 0 .507-.541.903-1.377.903-.762 0-1.252-.328-1.406-.971l-1.231.187c.213 1.159 1.176 1.811 2.646 1.811 1.581 0 2.676-.839 2.676-2.024 0-.925-.588-1.496-1.79-1.773l-1.039-.238c-.721-.171-1.032-.414-1.027-.857-.005-.503.541-.861 1.265-.861.793 0 1.159.439 1.308.878l1.155-.204zM51.195 144h5.271v-1.134h-3.954v-7.593h-1.317V144zm9.428.132c1.846 0 3.052-1.351 3.052-3.375 0-2.037-1.206-3.388-3.052-3.388-1.845 0-3.05 1.351-3.05 3.388 0 2.024 1.205 3.375 3.05 3.375zm.005-1.07c-1.206 0-1.769-1.052-1.769-2.309 0-1.253.563-2.318 1.769-2.318 1.197 0 1.76 1.065 1.76 2.318 0 1.257-.563 2.309-1.76 2.309zm7.213 3.529c1.666 0 2.953-.763 2.953-2.446v-6.69h-1.248v1.061h-.094c-.226-.405-.678-1.147-1.896-1.147-1.581 0-2.745 1.249-2.745 3.333 0 2.088 1.19 3.2 2.736 3.2 1.202 0 1.666-.678 1.896-1.095h.081v1.287c0 1.027-.703 1.47-1.67 1.47-1.061 0-1.475-.533-1.7-.908l-1.096.452c.346.801 1.22 1.483 2.783 1.483zm-.013-3.746c-1.138 0-1.73-.873-1.73-2.16 0-1.257.58-2.233 1.73-2.233 1.112 0 1.71.907 1.71 2.233 0 1.351-.61 2.16-1.71 2.16zM72.503 144h1.274v-6.545h-1.274V144zm.644-7.555c.438 0 .805-.341.805-.759s-.367-.763-.805-.763c-.444 0-.806.345-.806.763 0 .418.362.759.806.759zm7.25 2.608c-.265-1.019-1.062-1.684-2.477-1.684-1.478 0-2.527.78-2.527 1.939 0 .929.563 1.547 1.79 1.82l1.108.243c.63.14.925.422.925.831 0 .507-.541.903-1.377.903-.763 0-1.252-.328-1.406-.971l-1.232.187c.214 1.159 1.177 1.811 2.647 1.811 1.58 0 2.676-.839 2.676-2.024 0-.925-.588-1.496-1.79-1.773l-1.04-.238c-.72-.171-1.03-.414-1.027-.857-.004-.503.542-.861 1.266-.861.793 0 1.16.439 1.308.878l1.155-.204zm4.583-1.598h-1.342v-1.569h-1.274v1.569h-.959v1.022h.959v3.865c-.004 1.189.903 1.765 1.909 1.743.405-.004.678-.081.827-.136l-.23-1.053c-.086.017-.243.056-.448.056-.413 0-.784-.137-.784-.874v-3.601h1.342v-1.022zM86.39 144h1.274v-6.545H86.39V144zm.643-7.555c.44 0 .806-.341.806-.759s-.367-.763-.806-.763c-.443 0-.805.345-.805.763 0 .418.362.759.805.759zm5.102 7.687c1.547 0 2.548-.929 2.689-2.203h-1.24c-.162.707-.712 1.125-1.44 1.125-1.079 0-1.773-.899-1.773-2.327 0-1.402.707-2.284 1.773-2.284.81 0 1.304.512 1.44 1.125h1.24c-.136-1.321-1.214-2.199-2.702-2.199-1.845 0-3.038 1.39-3.038 3.388 0 1.973 1.15 3.375 3.051 3.375zm8.956-5.079c-.264-1.019-1.061-1.684-2.475-1.684-1.48 0-2.527.78-2.527 1.939 0 .929.562 1.547 1.79 1.82l1.107.243c.631.14.925.422.925.831 0 .507-.541.903-1.376.903-.763 0-1.253-.328-1.407-.971l-1.231.187c.213 1.159 1.176 1.811 2.646 1.811 1.581 0 2.676-.839 2.676-2.024 0-.925-.588-1.496-1.79-1.773l-1.04-.238c-.72-.171-1.03-.414-1.026-.857-.004-.503.54-.861 1.265-.861.793 0 1.16.439 1.309.878l1.154-.204z"/>
  <g filter="url(#random_1)">
    <rect width="120" height="40" x="16" y="68" fill="#fff" rx="6"/>
  </g>
  <path fill="#51595D" d="M31.714 92c2.659 0 4.197-1.65 4.197-4.376 0-2.715-1.538-4.351-4.108-4.351h-2.915V92h2.826zm-1.509-1.15v-6.427h1.517c1.91 0 2.894 1.142 2.894 3.2 0 2.067-.985 3.226-2.975 3.226h-1.436zM37.446 92h1.275v-6.546h-1.275V92zm.644-7.555c.439 0 .805-.341.805-.759s-.366-.763-.805-.763c-.443 0-.806.346-.806.763 0 .418.363.759.806.759zm5.089 10.146c1.666 0 2.953-.763 2.953-2.446v-6.69h-1.248v1.06h-.094c-.226-.404-.678-1.146-1.896-1.146-1.581 0-2.745 1.249-2.745 3.333 0 2.088 1.19 3.2 2.736 3.2 1.202 0 1.666-.678 1.896-1.095h.081v1.287c0 1.027-.703 1.47-1.67 1.47-1.061 0-1.475-.533-1.7-.908l-1.096.452c.346.801 1.22 1.483 2.783 1.483zm-.013-3.746c-1.138 0-1.73-.873-1.73-2.16 0-1.257.58-2.233 1.73-2.233 1.112 0 1.709.907 1.709 2.233 0 1.35-.61 2.16-1.709 2.16zM47.841 92h1.274v-6.546h-1.274V92zm.643-7.555c.44 0 .806-.341.806-.759s-.367-.763-.806-.763c-.443 0-.805.346-.805.763 0 .418.362.759.805.759zm5.4 1.01h-1.342v-1.569h-1.274v1.569h-.959v1.022h.96v3.865c-.005 1.19.903 1.764 1.908 1.743.405-.004.678-.08.827-.136l-.23-1.053c-.085.017-.243.056-.448.056-.413 0-.784-.137-.784-.874v-3.6h1.343v-1.023zm3.315 6.69c1.082 0 1.692-.55 1.934-1.04h.052V92h1.244v-4.347c0-1.904-1.5-2.284-2.54-2.284-1.184 0-2.275.478-2.702 1.67l1.198.273c.187-.464.665-.911 1.521-.911.823 0 1.245.43 1.245 1.171v.03c0 .465-.478.456-1.654.593-1.24.145-2.51.468-2.51 1.956 0 1.287.968 1.994 2.212 1.994zm.277-1.023c-.72 0-1.24-.324-1.24-.954 0-.682.605-.925 1.342-1.023.413-.055 1.394-.166 1.577-.35v.844c0 .776-.618 1.483-1.68 1.483zm5.924-7.85h-1.274V92H63.4v-8.727zM68.392 92h1.317v-3.068h1.79c2.024 0 3.026-1.223 3.026-2.834 0-1.606-.993-2.825-3.022-2.825h-3.11V92zm1.317-4.185v-3.413h1.654c1.303 0 1.836.707 1.836 1.696s-.532 1.717-1.82 1.717h-1.67zm8.103 4.33c1.082 0 1.692-.55 1.935-1.04h.05V92h1.245v-4.347c0-1.904-1.5-2.284-2.54-2.284-1.184 0-2.275.478-2.701 1.67l1.197.273c.188-.464.665-.911 1.521-.911.823 0 1.245.43 1.245 1.171v.03c0 .465-.477.456-1.654.593-1.24.145-2.51.468-2.51 1.956 0 1.287.968 1.994 2.212 1.994zm.277-1.023c-.72 0-1.24-.324-1.24-.954 0-.682.605-.925 1.342-1.023.414-.055 1.394-.166 1.577-.35v.844c0 .776-.618 1.483-1.679 1.483zm5.221 3.332c1.053 0 1.718-.55 2.097-1.58l2.706-7.407-1.376-.013-1.658 5.08h-.068l-1.658-5.08h-1.364l2.395 6.631-.157.435c-.324.87-.78.942-1.48.75l-.306 1.044c.153.068.486.14.87.14zM89.314 92h1.274v-4.035c0-.883.618-1.496 1.342-1.496.707 0 1.197.469 1.197 1.18V92h1.27v-4.172c0-.788.482-1.36 1.313-1.36.673 0 1.227.376 1.227 1.262V92h1.274v-4.39c0-1.495-.835-2.24-2.02-2.24-.941 0-1.649.451-1.964 1.15h-.068c-.286-.716-.887-1.15-1.76-1.15-.865 0-1.509.43-1.781 1.15h-.081v-1.066h-1.223V92zm13.426.132c1.428 0 2.438-.703 2.727-1.768l-1.206-.218c-.23.618-.784.933-1.508.933-1.091 0-1.824-.707-1.858-1.968h4.653v-.452c0-2.365-1.414-3.29-2.897-3.29-1.824 0-3.026 1.39-3.026 3.4 0 2.034 1.185 3.363 3.115 3.363zm-1.841-3.976c.051-.929.725-1.734 1.76-1.734.989 0 1.636.733 1.641 1.734h-3.401zm7.337-.042c0-1.044.639-1.641 1.526-1.641.865 0 1.389.567 1.389 1.517V92h1.274v-4.163c0-1.62-.891-2.468-2.229-2.468-.984 0-1.627.456-1.93 1.15h-.081v-1.065h-1.223V92h1.274v-3.886zm8.953-2.66h-1.342v-1.568h-1.274v1.569h-.959v1.022h.959v3.865c-.004 1.19.903 1.764 1.909 1.743.405-.004.677-.08.827-.136l-.231-1.053c-.085.017-.242.056-.447.056-.413 0-.784-.137-.784-.874v-3.6h1.342v-1.023zm6.209 1.599c-.264-1.019-1.061-1.684-2.476-1.684-1.478 0-2.527.78-2.527 1.94 0 .928.563 1.546 1.79 1.819l1.108.243c.631.14.925.422.925.83 0 .508-.542.904-1.377.904-.763 0-1.253-.328-1.406-.972l-1.232.188c.214 1.16 1.177 1.811 2.647 1.811 1.581 0 2.676-.84 2.676-2.024 0-.925-.588-1.496-1.79-1.773l-1.04-.238c-.72-.17-1.031-.414-1.027-.857-.004-.503.542-.86 1.266-.86.793 0 1.159.438 1.308.877l1.155-.204z"/>
  <g filter="url(#random_2 )">
    <rect width="120" height="40" x="16" y="16" fill="#fff" rx="6"/>
  </g>
  <path fill="#51595D" d="M41.983 40l.801-2.31h3.41L46.99 40h1.398l-3.14-8.727h-1.522L40.586 40h1.397zm1.185-3.418l1.287-3.724h.068l1.287 3.724h-2.642zm9.017 6.009c1.666 0 2.953-.763 2.953-2.446v-6.69h-1.249v1.06h-.093c-.226-.404-.678-1.146-1.897-1.146-1.58 0-2.744 1.249-2.744 3.333 0 2.088 1.189 3.2 2.736 3.2 1.202 0 1.666-.678 1.896-1.095h.081v1.287c0 1.027-.703 1.47-1.67 1.47-1.062 0-1.475-.533-1.7-.908l-1.096.452c.345.801 1.219 1.483 2.783 1.483zm-.013-3.746c-1.138 0-1.73-.873-1.73-2.16 0-1.257.58-2.233 1.73-2.233 1.112 0 1.709.907 1.709 2.233 0 1.35-.61 2.16-1.709 2.16zm7.42 3.746c1.665 0 2.952-.763 2.952-2.446v-6.69h-1.248v1.06h-.094c-.226-.404-.678-1.146-1.896-1.146-1.581 0-2.745 1.249-2.745 3.333 0 2.088 1.19 3.2 2.736 3.2 1.202 0 1.666-.678 1.896-1.095h.081v1.287c0 1.027-.703 1.47-1.67 1.47-1.061 0-1.475-.533-1.7-.908l-1.096.452c.346.801 1.22 1.483 2.783 1.483zm-.014-3.746c-1.138 0-1.73-.873-1.73-2.16 0-1.257.58-2.233 1.73-2.233 1.112 0 1.71.907 1.71 2.233 0 1.35-.61 2.16-1.71 2.16zM64.253 40h1.274v-3.997c0-.857.66-1.475 1.564-1.475.264 0 .563.047.665.077v-1.219a5.16 5.16 0 00-.541-.03c-.767 0-1.424.435-1.662 1.138h-.068v-1.04h-1.232V40zm7.192.132c1.428 0 2.438-.703 2.727-1.768l-1.206-.218c-.23.618-.784.934-1.508.934-1.091 0-1.824-.708-1.858-1.97h4.653v-.45c0-2.366-1.414-3.29-2.897-3.29-1.824 0-3.026 1.389-3.026 3.4 0 2.033 1.185 3.362 3.115 3.362zm-1.84-3.976c.05-.929.724-1.734 1.76-1.734.988 0 1.636.733 1.64 1.734h-3.4zm8.806 6.435c1.667 0 2.954-.763 2.954-2.446v-6.69h-1.25v1.06h-.093c-.226-.404-.677-1.146-1.896-1.146-1.581 0-2.744 1.249-2.744 3.333 0 2.088 1.188 3.2 2.735 3.2 1.202 0 1.667-.678 1.897-1.095h.08v1.287c0 1.027-.703 1.47-1.67 1.47-1.06 0-1.474-.533-1.7-.908l-1.095.452c.345.801 1.218 1.483 2.782 1.483zm-.012-3.746c-1.138 0-1.73-.873-1.73-2.16 0-1.257.579-2.233 1.73-2.233 1.112 0 1.708.907 1.708 2.233 0 1.35-.609 2.16-1.708 2.16zm6.58 1.3c1.082 0 1.69-.55 1.934-1.04h.051V40h1.244v-4.347c0-1.904-1.5-2.284-2.54-2.284-1.184 0-2.275.478-2.701 1.67l1.197.273c.188-.464.665-.911 1.522-.911.822 0 1.244.43 1.244 1.171v.03c0 .465-.477.456-1.654.593-1.24.145-2.51.468-2.51 1.956 0 1.286.968 1.994 2.212 1.994zm.276-1.023c-.72 0-1.24-.324-1.24-.954 0-.682.605-.925 1.342-1.023.414-.056 1.394-.166 1.577-.35v.844c0 .776-.618 1.483-1.679 1.483zm7.706-5.667h-1.343v-1.569h-1.274v1.569h-.959v1.022h.96v3.865c-.005 1.19.903 1.764 1.908 1.743.405-.004.678-.08.827-.136l-.23-1.053c-.085.017-.243.056-.447.056-.414 0-.785-.137-.785-.874v-3.6h1.343v-1.023zm4.096 6.677c1.845 0 3.051-1.35 3.051-3.375 0-2.037-1.206-3.388-3.051-3.388-1.845 0-3.051 1.351-3.051 3.388 0 2.024 1.206 3.375 3.051 3.375zm.004-1.07c-1.206 0-1.768-1.052-1.768-2.31 0-1.252.562-2.317 1.768-2.317 1.198 0 1.76 1.065 1.76 2.318 0 1.257-.562 2.31-1.76 2.31zm4.469.938h1.275v-3.997c0-.857.66-1.475 1.563-1.475.265 0 .563.047.665.077v-1.219a5.157 5.157 0 00-.541-.03c-.767 0-1.423.435-1.662 1.138h-.068v-1.04h-1.232V40zm9.511-4.947c-.265-1.019-1.061-1.684-2.476-1.684-1.479 0-2.527.78-2.527 1.94 0 .928.562 1.546 1.79 1.819l1.108.243c.63.14.924.422.924.83 0 .508-.541.904-1.376.904-.763 0-1.253-.328-1.406-.971l-1.232.187c.213 1.16 1.176 1.811 2.646 1.811 1.581 0 2.677-.84 2.677-2.024 0-.925-.589-1.496-1.79-1.773l-1.04-.238c-.72-.17-1.031-.414-1.027-.857-.004-.503.541-.86 1.266-.86.792 0 1.159.438 1.308.877l1.155-.204z"/>
  <path stroke="url(#paint8_linear)" d="M197 368v25.658a8 8 0 004.934 7.389l37.132 15.406a8 8 0 014.934 7.389V441"/>
  <path stroke="url(#paint9_linear)" d="M123 368v25.658a8 8 0 01-4.934 7.389l-37.132 15.406A8 8 0 0076 423.842V441"/>
  <g fill="#fff" stroke="#ADC2FA" stroke-width=".5">
    <circle r="2">
      <animateMotion begin="-0.8s" dur="0.8s" path="M123 368V393.658C123 396.892 121.053 399.808 118.066 401.047L80.9342 416.453C77.9471 417.692 76 420.608 76 423.842V441" repeatCount="indefinite"/>
    </circle>
    <circle r="2">
      <animateMotion begin="-0.4s" dur="0.8s" path="M123 368V393.658C123 396.892 121.053 399.808 118.066 401.047L80.9342 416.453C77.9471 417.692 76 420.608 76 423.842V441" repeatCount="indefinite"/>
    </circle>
  </g>
  <rect width="320" height="145" y="232" fill="url(#paint10_linear)" rx="10"/>
  <g filter="url(#random_6)">
    <rect width="280" height="76" x="20" y="252" fill="url(#paint11_linear)" rx="6"/>
  </g>
  <g fill="#fff" stroke="#ADC2FA" stroke-width=".5">
    <circle r="2">
      <animateMotion begin="-0.8s" dur="0.8s" path="M197 368V393.658C197 396.892 198.947 399.808 201.934 401.047L239.066 416.453C242.053 417.692 244 420.608 244 423.842V441" repeatCount="indefinite"/>
    </circle>
    <circle r="2">
      <animateMotion begin="-0.4s" dur="0.8s" path="M197 368V393.658C197 396.892 198.947 399.808 201.934 401.047L239.066 416.453C242.053 417.692 244 420.608 244 423.842V441" repeatCount="indefinite"/>
    </circle>
  </g>
  <rect width="320" height="145" y="232" fill="url(#paint10_linear)" rx="10"/>
  <path fill="#393F42" d="M120.642 358h1.581v-3.707h3.626v-1.326h-3.626v-2.369h4.01v-1.325h-5.591V358zm6.963 0h1.543v-6.545h-1.543V358zm.776-7.474c.49 0 .89-.375.89-.836 0-.464-.4-.839-.89-.839-.495 0-.895.375-.895.839 0 .461.4.836.895.836zm3.896 3.639c0-.946.571-1.492 1.385-1.492.796 0 1.274.524 1.274 1.398V358h1.542v-4.168c.005-1.568-.89-2.463-2.241-2.463-.98 0-1.654.469-1.952 1.198h-.077v-1.112h-1.474V358h1.543v-3.835zm7.653 3.967c1.027 0 1.641-.481 1.922-1.031h.051V358h1.483v-4.381c0-1.73-1.411-2.25-2.659-2.25-1.377 0-2.433.614-2.774 1.807l1.44.205c.154-.448.588-.831 1.342-.831.716 0 1.108.366 1.108 1.01v.025c0 .443-.464.465-1.619.588-1.27.137-2.484.516-2.484 1.99 0 1.287.941 1.969 2.19 1.969zm.401-1.133c-.644 0-1.104-.294-1.104-.861 0-.593.516-.84 1.206-.938.405-.055 1.214-.157 1.415-.319v.771c0 .729-.588 1.347-1.517 1.347zm6.149-2.834c0-.946.571-1.492 1.385-1.492.797 0 1.274.524 1.274 1.398V358h1.542v-4.168c.005-1.568-.89-2.463-2.241-2.463-.98 0-1.653.469-1.952 1.198h-.076v-1.112h-1.475V358h1.543v-3.835zm8.625 3.963c1.645 0 2.693-.976 2.804-2.365h-1.475c-.132.703-.639 1.108-1.316 1.108-.964 0-1.586-.806-1.586-2.144 0-1.321.635-2.113 1.586-2.113.741 0 1.197.477 1.316 1.108h1.475c-.107-1.419-1.215-2.353-2.813-2.353-1.917 0-3.128 1.385-3.128 3.384 0 1.981 1.181 3.375 3.137 3.375zm6.968 0c1.526 0 2.574-.746 2.847-1.884l-1.441-.162c-.208.554-.72.844-1.385.844-.997 0-1.657-.656-1.67-1.777h4.56v-.473c0-2.297-1.381-3.307-2.992-3.307-1.875 0-3.098 1.377-3.098 3.397 0 2.054 1.206 3.362 3.179 3.362zm-1.645-4.019c.047-.835.665-1.538 1.585-1.538.887 0 1.483.648 1.492 1.538h-3.077zm8.522-3.511h2.697V358h1.569v-7.402h2.697v-1.325h-6.963v1.325zm10.186 7.53c1.525 0 2.574-.746 2.846-1.884l-1.44-.162c-.209.554-.72.844-1.385.844-.997 0-1.658-.656-1.67-1.777h4.559v-.473c0-2.297-1.381-3.307-2.991-3.307-1.875 0-3.098 1.377-3.098 3.397 0 2.054 1.206 3.362 3.179 3.362zm-1.645-4.019c.047-.835.665-1.538 1.585-1.538.886 0 1.483.648 1.491 1.538h-3.076zm7.744 4.023c1.027 0 1.64-.481 1.922-1.031h.051V358h1.483v-4.381c0-1.73-1.411-2.25-2.659-2.25-1.377 0-2.434.614-2.775 1.807l1.441.205c.153-.448.588-.831 1.342-.831.716 0 1.108.366 1.108 1.01v.025c0 .443-.464.465-1.619.588-1.27.137-2.485.516-2.485 1.99 0 1.287.942 1.969 2.191 1.969zm.4-1.133c-.643 0-1.103-.294-1.103-.861 0-.593.515-.84 1.206-.938.404-.055 1.214-.157 1.414-.319v.771c0 .729-.588 1.347-1.517 1.347zm4.607 1.001h1.542v-3.98c0-.806.537-1.351 1.202-1.351.652 0 1.1.439 1.1 1.112V358h1.512v-4.082c0-.738.439-1.249 1.185-1.249.622 0 1.117.367 1.117 1.176V358h1.546v-4.393c0-1.462-.843-2.238-2.045-2.238-.95 0-1.675.469-1.965 1.198h-.068c-.251-.742-.886-1.198-1.768-1.198-.878 0-1.534.452-1.807 1.198h-.077v-1.112h-1.474V358z"/>
  <g filter="url(#random_6)">
    <rect width="280" height="76" x="20" y="252" fill="url(#paint11_linear)" rx="6"/>
  </g>
  <path fill="#000" d="M156.766 284c-.665 0-1.256.184-1.771.549-.515.364-.88.882-1.092 1.553h-.119v-1.459a.473.473 0 00-.474-.473h-1.704a.472.472 0 00-.473.473V295.3c0 .262.211.473.473.473h1.788a.472.472 0 00.473-.473v-6.349c0-.493.114-.93.34-1.306a2.38 2.38 0 01.933-.888c.395-.215.844-.32 1.342-.32.231 0 .473.016.721.05h.009a.474.474 0 00.54-.468v-1.521a.472.472 0 00-.435-.473c-.014 0-.025-.003-.039-.003a6.151 6.151 0 00-.512-.022zM167.803 285.421a4.623 4.623 0 00-1.693-1.061 5.984 5.984 0 00-2.03-.342c-1.108 0-2.072.253-2.893.76-.822.507-1.459 1.211-1.916 2.116-.457.905-.685 1.952-.685 3.147 0 1.214.225 2.269.679 3.163a4.898 4.898 0 001.947 2.072c.844.487 1.846.729 3.01.729.902 0 1.701-.136 2.403-.412.699-.276 1.275-.663 1.726-1.164.312-.348.557-.738.73-1.169a.478.478 0 00-.384-.66l-1.64-.184a.477.477 0 00-.471.25 2.094 2.094 0 01-.406.535c-.237.223-.516.39-.839.501a3.2 3.2 0 01-1.08.17c-.593 0-1.114-.128-1.557-.381a2.62 2.62 0 01-1.036-1.103c-.22-.429-.339-.938-.362-1.523a.142.142 0 01.14-.145h7.465a.474.474 0 00.474-.473v-.365c0-1.016-.142-1.896-.424-2.634-.281-.741-.668-1.348-1.158-1.827zm-6.341 3.453a.14.14 0 01-.139-.15c.042-.399.151-.772.337-1.117.234-.434.563-.788.986-1.058.423-.27.913-.404 1.473-.404.523 0 .983.12 1.378.356.396.237.705.56.925.972.2.373.312.791.337 1.256a.142.142 0 01-.14.145h-5.157zM175.312 286.67c.423-.301.913-.448 1.473-.448.66 0 1.186.186 1.582.562.314.298.537.657.668 1.072a.47.47 0 00.448.329h1.71a.473.473 0 00.468-.551 4.179 4.179 0 00-.671-1.643 4.335 4.335 0 00-1.741-1.459c-.726-.346-1.562-.518-2.503-.518-1.133 0-2.113.253-2.943.76a5.096 5.096 0 00-1.924 2.116c-.454.905-.68 1.947-.68 3.124 0 1.173.223 2.211.669 3.111a5.035 5.035 0 001.913 2.111c.829.509 1.821.763 2.979.763.972 0 1.818-.179 2.54-.532a4.268 4.268 0 002.358-3.108.473.473 0 00-.468-.554h-1.704a.48.48 0 00-.454.34 2.41 2.41 0 01-.362.724 2.14 2.14 0 01-.804.668 2.49 2.49 0 01-1.084.231c-.568 0-1.063-.153-1.484-.457-.42-.303-.746-.74-.977-1.306-.231-.568-.348-1.244-.348-2.035 0-.78.117-1.451.351-2.011.236-.559.565-.988.988-1.289zM193.212 284.164h-1.921a.48.48 0 00-.354.159l-4.029 4.503h-.189v-4.353a.474.474 0 00-.474-.473h-1.787a.474.474 0 00-.474.473v10.824c0 .262.212.473.474.473h1.787a.473.473 0 00.474-.473v-3.319c0-.07.025-.137.075-.187l.777-.832a.175.175 0 01.27.016l3.289 4.598a.473.473 0 00.384.197h2.102c.387 0 .61-.437.385-.751l-4.158-5.756a.14.14 0 01.008-.173l3.715-4.138a.473.473 0 00-.354-.788zM205.546 286.862c-.457-.902-1.1-1.601-1.93-2.099-.83-.499-1.812-.749-2.946-.749-1.133 0-2.116.25-2.946.749a5.033 5.033 0 00-1.93 2.099c-.456.903-.685 1.952-.685 3.152 0 1.201.229 2.248.685 3.144.457.897 1.1 1.596 1.93 2.094.83.499 1.813.749 2.946.749 1.134 0 2.116-.25 2.946-.749a5.045 5.045 0 001.93-2.094c.457-.896.685-1.943.685-3.144-.003-1.2-.231-2.249-.685-3.152zm-2.395 5.063c-.203.573-.512 1.03-.924 1.37-.412.339-.927.509-1.543.509-.629 0-1.153-.17-1.568-.509-.415-.34-.726-.797-.93-1.37a5.727 5.727 0 01-.306-1.919c0-.71.103-1.353.306-1.93.204-.576.515-1.035.93-1.378.415-.342.939-.515 1.568-.515.616 0 1.128.173 1.543.515.412.343.721.802.924 1.378.204.577.307 1.22.307 1.93-.003.705-.103 1.345-.307 1.919z"/>
  <path fill="#4D8DFF" d="M140.134 280h-5.878c-.551 0-1.055.306-1.312.794 0 0-.821 1.57-1.311 2.514a1.288 1.288 0 01-1.142.691h-6.844c-.479 0-.919-.268-1.142-.691l-1.312-2.514a1.48 1.48 0 00-1.311-.794h-5.878a1 1 0 00-1 1v1.999c0 .551.448 1 1 1h7.139c.451 0 .869.236 1.1.621l1.663 2.756c.233.387.651.621 1.102.621h4.116c.451 0 .869-.236 1.103-.621l1.665-2.756a1.285 1.285 0 011.102-.621h7.14c.551 0 1-.449 1-1V281c0-.552-.449-1-1-1z"/>
  <path fill="#23239E" d="M114.002 299.999h5.879c.551 0 1.055-.306 1.311-.793 0 0 .822-1.571 1.312-2.515.223-.426.663-.69 1.141-.69h6.845c.479 0 .919.267 1.142.69l1.311 2.515c.256.487.76.793 1.312.793h5.878a1 1 0 001-.999v-2a1 1 0 00-1-.999h-7.14c-.451 0-.868-.237-1.1-.621l-1.662-2.757a1.287 1.287 0 00-1.103-.621h-4.118c-.451 0-.869.237-1.103.621l-1.665 2.757a1.287 1.287 0 01-1.103.621H114a1 1 0 00-1 .999v2a1 1 0 001.002.999z"/>
  <path fill="#1A54F2" d="M119.989 291.999H114c-.552 0-1-.449-1-1V289a1 1 0 011-1h5.989c.365 0 .713.153.958.423l1.033 1.128a.663.663 0 010 .899l-1.033 1.128a1.298 1.298 0 01-.958.421zM134.143 288h5.99a1 1 0 01.999 1v1.999a1 1 0 01-.999 1h-5.99a1.29 1.29 0 01-.958-.424l-1.033-1.127a.665.665 0 010-.9l1.033-1.128a1.3 1.3 0 01.958-.42z"/>
  <rect width="320" height="124" x="320" y="557" fill="url(#paint12_linear)" rx="10" transform="rotate(-180 320 557)"/>
  <rect width="138" height="40" x="16" y="502" fill="#fff" rx="6"/>
  <g filter="url(#random_8)">
    <rect width="288" height="40" x="16" y="450" fill="#fff" rx="6"/>
  </g>
  <path fill="#51595D" d="M29.428 526h1.316v-3.068h1.79c2.024 0 3.026-1.223 3.026-2.834 0-1.607-.993-2.825-3.022-2.825h-3.11V526zm1.316-4.185v-3.413h1.654c1.304 0 1.836.707 1.836 1.696s-.532 1.717-1.82 1.717h-1.67zm8.103 4.33c1.083 0 1.692-.55 1.935-1.04h.051V526h1.244v-4.347c0-1.904-1.5-2.284-2.54-2.284-1.184 0-2.275.478-2.701 1.671l1.197.272c.188-.464.665-.911 1.522-.911.822 0 1.244.43 1.244 1.171v.03c0 .465-.477.456-1.653.593-1.24.144-2.51.468-2.51 1.956 0 1.287.967 1.994 2.211 1.994zm.277-1.023c-.72 0-1.24-.324-1.24-.954 0-.682.605-.925 1.343-1.023.413-.056 1.393-.166 1.576-.35v.844c0 .776-.618 1.483-1.679 1.483zm5.221 3.333c1.053 0 1.718-.55 2.097-1.581l2.706-7.407-1.376-.012-1.658 5.079h-.068l-1.658-5.079h-1.363l2.394 6.63-.157.435c-.324.869-.78.942-1.479.75l-.307 1.044c.154.068.486.141.87.141zm8.526-2.323c1.846 0 3.052-1.351 3.052-3.375 0-2.037-1.206-3.388-3.052-3.388-1.845 0-3.05 1.351-3.05 3.388 0 2.024 1.205 3.375 3.05 3.375zm.005-1.07c-1.206 0-1.769-1.052-1.769-2.309 0-1.253.563-2.318 1.769-2.318 1.197 0 1.76 1.065 1.76 2.318 0 1.257-.563 2.309-1.76 2.309zm8.615-1.776c.004 1.112-.822 1.64-1.538 1.64-.789 0-1.334-.571-1.334-1.462v-4.009h-1.274v4.163c0 1.623.89 2.467 2.148 2.467.984 0 1.653-.52 1.956-1.219h.068V526h1.252v-6.545h-1.278v3.831zm6.046-3.831h-1.342v-1.569H64.92v1.569h-.96v1.022h.96v3.865c-.005 1.189.903 1.765 1.908 1.743.405-.004.678-.081.827-.136l-.23-1.053c-.085.017-.243.056-.447.056-.414 0-.784-.137-.784-.874v-3.601h1.342v-1.022zM72.224 526h1.317v-3.068h1.79c2.024 0 3.025-1.223 3.025-2.834 0-1.607-.992-2.825-3.02-2.825h-3.112V526zm1.317-4.185v-3.413h1.654c1.304 0 1.836.707 1.836 1.696s-.532 1.717-1.82 1.717h-1.67zM79.798 526h1.274v-3.997c0-.857.66-1.475 1.564-1.475.264 0 .563.047.665.077v-1.219a5.202 5.202 0 00-.541-.029c-.767 0-1.424.434-1.662 1.137h-.069v-1.039h-1.231V526zm7.128.132c1.845 0 3.051-1.351 3.051-3.375 0-2.037-1.206-3.388-3.05-3.388-1.846 0-3.052 1.351-3.052 3.388 0 2.024 1.206 3.375 3.051 3.375zm.004-1.07c-1.206 0-1.768-1.052-1.768-2.309 0-1.253.562-2.318 1.768-2.318 1.198 0 1.76 1.065 1.76 2.318 0 1.257-.562 2.309-1.76 2.309zm7.227 1.07c1.547 0 2.548-.929 2.689-2.203h-1.24c-.162.707-.712 1.125-1.44 1.125-1.079 0-1.774-.899-1.774-2.327 0-1.402.708-2.284 1.773-2.284.81 0 1.304.512 1.44 1.125h1.24c-.136-1.321-1.214-2.199-2.701-2.199-1.845 0-3.038 1.39-3.038 3.388 0 1.973 1.15 3.375 3.05 3.375zm6.872 0c1.428 0 2.438-.703 2.727-1.768l-1.206-.218c-.23.618-.784.934-1.508.934-1.091 0-1.824-.708-1.858-1.969h4.653v-.452c0-2.365-1.414-3.29-2.897-3.29-1.824 0-3.026 1.39-3.026 3.401 0 2.033 1.185 3.362 3.115 3.362zm-1.84-3.976c.05-.929.724-1.734 1.759-1.734.989 0 1.637.733 1.641 1.734h-3.4zm10.967-1.103c-.264-1.019-1.061-1.684-2.476-1.684-1.479 0-2.527.78-2.527 1.939 0 .929.563 1.547 1.79 1.82l1.108.243c.63.14.924.422.924.831 0 .507-.541.903-1.376.903-.763 0-1.253-.328-1.406-.971l-1.232.187c.213 1.159 1.176 1.811 2.647 1.811 1.581 0 2.676-.839 2.676-2.024 0-.925-.588-1.496-1.79-1.773l-1.04-.238c-.72-.171-1.031-.414-1.027-.857-.004-.503.541-.861 1.266-.861.792 0 1.159.439 1.308.878l1.155-.204zm6.433 0c-.264-1.019-1.061-1.684-2.475-1.684-1.479 0-2.527.78-2.527 1.939 0 .929.562 1.547 1.789 1.82l1.108.243c.631.14.925.422.925.831 0 .507-.541.903-1.376.903-.763 0-1.253-.328-1.407-.971l-1.231.187c.213 1.159 1.176 1.811 2.646 1.811 1.581 0 2.676-.839 2.676-2.024 0-.925-.588-1.496-1.789-1.773l-1.04-.238c-.72-.171-1.031-.414-1.027-.857-.004-.503.541-.861 1.265-.861.793 0 1.16.439 1.309.878l1.154-.204zm4.286 5.079c1.846 0 3.051-1.351 3.051-3.375 0-2.037-1.205-3.388-3.051-3.388-1.845 0-3.051 1.351-3.051 3.388 0 2.024 1.206 3.375 3.051 3.375zm.005-1.07c-1.206 0-1.769-1.052-1.769-2.309 0-1.253.563-2.318 1.769-2.318 1.197 0 1.76 1.065 1.76 2.318 0 1.257-.563 2.309-1.76 2.309zm4.469.938h1.274v-3.997c0-.857.66-1.475 1.564-1.475.264 0 .562.047.665.077v-1.219a5.218 5.218 0 00-.542-.029c-.767 0-1.423.434-1.662 1.137h-.068v-1.039h-1.231V526zm9.51-4.947c-.264-1.019-1.061-1.684-2.476-1.684-1.479 0-2.527.78-2.527 1.939 0 .929.563 1.547 1.79 1.82l1.108.243c.631.14.925.422.925.831 0 .507-.542.903-1.377.903-.763 0-1.253-.328-1.406-.971l-1.232.187c.213 1.159 1.177 1.811 2.647 1.811 1.581 0 2.676-.839 2.676-2.024 0-.925-.588-1.496-1.79-1.773l-1.04-.238c-.72-.171-1.031-.414-1.027-.857-.004-.503.542-.861 1.266-.861.793 0 1.159.439 1.308.878l1.155-.204zM110.55 474l.801-2.31h3.409l.797 2.31h1.397l-3.14-8.727h-1.522l-3.14 8.727h1.398zm1.184-3.418l1.287-3.724h.068l1.287 3.724h-2.642zm9.03 3.55c1.547 0 2.548-.929 2.689-2.203h-1.24c-.162.707-.712 1.125-1.44 1.125-1.079 0-1.773-.899-1.773-2.327 0-1.402.707-2.284 1.773-2.284.809 0 1.304.512 1.44 1.125h1.24c-.136-1.321-1.215-2.199-2.702-2.199-1.845 0-3.038 1.39-3.038 3.388 0 1.973 1.15 3.375 3.051 3.375zm6.809 0c1.546 0 2.548-.929 2.689-2.203h-1.241c-.161.707-.711 1.125-1.44 1.125-1.078 0-1.773-.899-1.773-2.327 0-1.402.708-2.284 1.773-2.284.81 0 1.304.512 1.44 1.125h1.241c-.137-1.321-1.215-2.199-2.702-2.199-1.845 0-3.039 1.39-3.039 3.388 0 1.973 1.151 3.375 3.052 3.375zm6.808 0c1.845 0 3.051-1.351 3.051-3.375 0-2.037-1.206-3.388-3.051-3.388-1.845 0-3.051 1.351-3.051 3.388 0 2.024 1.206 3.375 3.051 3.375zm.004-1.07c-1.205 0-1.768-1.052-1.768-2.309 0-1.253.563-2.318 1.768-2.318 1.198 0 1.76 1.065 1.76 2.318 0 1.257-.562 2.309-1.76 2.309zm8.616-1.776c.004 1.112-.823 1.64-1.538 1.64-.789 0-1.334-.571-1.334-1.462v-4.009h-1.274v4.163c0 1.623.89 2.467 2.147 2.467.985 0 1.654-.52 1.956-1.219h.068V474h1.253v-6.545h-1.278v3.831zm4.264-1.172c0-1.044.64-1.641 1.526-1.641.865 0 1.389.567 1.389 1.517V474h1.274v-4.163c0-1.62-.89-2.468-2.228-2.468-.985 0-1.628.456-1.931 1.151h-.081v-1.065h-1.223V474h1.274v-3.886zm8.954-2.659h-1.343v-1.569h-1.274v1.569h-.959v1.022h.959v3.865c-.004 1.189.904 1.765 1.909 1.743.405-.004.678-.081.827-.136l-.23-1.053c-.085.017-.243.056-.448.056-.413 0-.784-.137-.784-.874v-3.601h1.343v-1.022zm1.409 6.545h1.274v-6.545h-1.274V474zm.643-7.555c.439 0 .806-.341.806-.759s-.367-.763-.806-.763c-.443 0-.805.345-.805.763 0 .418.362.759.805.759zm3.619 3.669c0-1.044.64-1.641 1.526-1.641.865 0 1.389.567 1.389 1.517V474h1.274v-4.163c0-1.62-.89-2.468-2.228-2.468-.985 0-1.628.456-1.931 1.151h-.081v-1.065h-1.223V474h1.274v-3.886zm8.642 6.477c1.667 0 2.954-.763 2.954-2.446v-6.69h-1.249v1.061h-.094c-.226-.405-.677-1.147-1.896-1.147-1.581 0-2.744 1.249-2.744 3.333 0 2.088 1.189 3.2 2.735 3.2 1.202 0 1.667-.678 1.897-1.095h.081v1.287c0 1.027-.703 1.47-1.671 1.47-1.061 0-1.474-.533-1.7-.908l-1.095.452c.345.801 1.219 1.483 2.782 1.483zm-.012-3.746c-1.138 0-1.73-.873-1.73-2.16 0-1.257.579-2.233 1.73-2.233 1.112 0 1.709.907 1.709 2.233 0 1.351-.61 2.16-1.709 2.16zm10.39 1.279c.788 0 1.662-.265 2.25-.814l.588.69h1.44l-1.24-1.483c.371-.494.725-1.27.725-2.48h-1.151c0 .584-.136 1.104-.362 1.538l-1.747-2.088.596-.439c.725-.528 1.16-1.137 1.16-1.968 0-1.019-.823-1.901-2.165-1.901-1.33 0-2.203.857-2.203 2.062 0 .78.409 1.398.958 2.067-.997.691-1.674 1.334-1.674 2.374 0 1.402 1.069 2.442 2.825 2.442zm1.534-1.658a2.413 2.413 0 01-1.53.579c-.946 0-1.564-.643-1.564-1.397 0-.269.226-.806.908-1.309l.23-.17 1.956 2.297zm-1.734-3.827c-.397-.486-.708-.933-.708-1.376 0-.507.418-1.019 1.032-1.019.588 0 .971.461.971.87 0 .52-.285.835-.758 1.146l-.537.379zm8.755 5.361h5.522v-1.134h-4.206v-2.671h3.87v-1.13h-3.87v-2.659h4.155v-1.133h-5.471V474zm7.23 0h1.317v-3.303h1.875L201.66 474h1.5l-1.935-3.533c1.07-.396 1.602-1.287 1.602-2.458 0-1.607-.997-2.736-3.021-2.736h-3.111V474zm1.317-4.436v-3.162h1.653c1.3 0 1.837.618 1.837 1.607 0 .984-.537 1.555-1.82 1.555h-1.67zM204.43 474h1.316v-3.068h1.79c2.024 0 3.026-1.223 3.026-2.834 0-1.607-.993-2.825-3.022-2.825h-3.11V474zm1.316-4.185v-3.413h1.654c1.304 0 1.836.707 1.836 1.696s-.532 1.717-1.819 1.717h-1.671z"/>
  <g filter="url(#random9_9)">
    <rect width="138" height="40" x="166" y="502" fill="#fff" rx="6"/>
  </g>
  <path fill="#51595D" d="M192.165 526l.801-2.31h3.409l.797 2.31h1.398l-3.141-8.727h-1.521L190.767 526h1.398zm1.184-3.418l1.287-3.724h.069l1.286 3.724h-2.642zm10.525.704c.004 1.112-.823 1.64-1.538 1.64-.789 0-1.334-.571-1.334-1.462v-4.009h-1.274v4.163c0 1.623.89 2.467 2.147 2.467.985 0 1.654-.52 1.956-1.219h.069V526h1.252v-6.545h-1.278v3.831zm5.441 2.842c1.193 0 1.662-.729 1.892-1.146h.106V526h1.245v-8.727h-1.275v3.243h-.076c-.23-.405-.665-1.147-1.884-1.147-1.581 0-2.744 1.249-2.744 3.371 0 2.118 1.146 3.388 2.736 3.388zm.281-1.087c-1.138 0-1.73-1.001-1.73-2.314 0-1.299.579-2.275 1.73-2.275 1.112 0 1.709.907 1.709 2.275 0 1.377-.61 2.314-1.709 2.314zm4.78.959h1.274v-6.545h-1.274V526zm.644-7.555c.438 0 .805-.341.805-.759s-.367-.763-.805-.763c-.444 0-.806.345-.806.763 0 .418.362.759.806.759zm5.4 1.01h-1.343v-1.569h-1.274v1.569h-.959v1.022h.959v3.865c-.004 1.189.904 1.765 1.909 1.743.405-.004.678-.081.827-.136l-.23-1.053c-.085.017-.243.056-.447.056-.414 0-.785-.137-.785-.874v-3.601h1.343v-1.022zm7.125 6.669c.788 0 1.662-.265 2.25-.814l.588.69h1.44l-1.24-1.483c.371-.494.725-1.27.725-2.48h-1.151c0 .584-.136 1.104-.362 1.538l-1.747-2.088.596-.439c.725-.528 1.159-1.137 1.159-1.968 0-1.019-.822-1.901-2.165-1.901-1.329 0-2.203.857-2.203 2.062 0 .78.409 1.398.959 2.067-.997.691-1.675 1.334-1.675 2.374 0 1.402 1.07 2.442 2.826 2.442zm1.534-1.658a2.413 2.413 0 01-1.53.579c-.946 0-1.564-.643-1.564-1.397 0-.269.226-.806.908-1.309l.23-.17 1.956 2.297zm-1.735-3.827c-.396-.486-.707-.933-.707-1.376 0-.507.418-1.019 1.031-1.019.588 0 .972.461.972.87 0 .52-.286.835-.759 1.146l-.537.379zm8.755-3.366V526h1.253v-6.32h.081l2.574 6.307h1.04l2.574-6.302h.081V526h1.253v-8.727h-1.598l-2.779 6.784h-.102l-2.779-6.784h-1.598zm13.425 8.859c1.845 0 3.051-1.351 3.051-3.375 0-2.037-1.206-3.388-3.051-3.388-1.845 0-3.051 1.351-3.051 3.388 0 2.024 1.206 3.375 3.051 3.375zm.004-1.07c-1.206 0-1.768-1.052-1.768-2.309 0-1.253.562-2.318 1.768-2.318 1.197 0 1.76 1.065 1.76 2.318 0 1.257-.563 2.309-1.76 2.309zm5.743-2.948c0-1.044.64-1.641 1.526-1.641.865 0 1.389.567 1.389 1.517V526h1.274v-4.163c0-1.62-.89-2.468-2.228-2.468-.985 0-1.628.456-1.931 1.151h-.081v-1.065h-1.223V526h1.274v-3.886zm5.898 3.886h1.274v-6.545h-1.274V526zm.643-7.555c.439 0 .806-.341.806-.759s-.367-.763-.806-.763c-.443 0-.805.345-.805.763 0 .418.362.759.805.759zm5.401 1.01h-1.343v-1.569h-1.274v1.569h-.959v1.022h.959v3.865c-.004 1.189.904 1.765 1.909 1.743.405-.004.678-.081.827-.136l-.23-1.053c-.085.017-.243.056-.448.056-.413 0-.784-.137-.784-.874v-3.601h1.343v-1.022zm4.096 6.677c1.845 0 3.051-1.351 3.051-3.375 0-2.037-1.206-3.388-3.051-3.388-1.845 0-3.051 1.351-3.051 3.388 0 2.024 1.206 3.375 3.051 3.375zm.004-1.07c-1.206 0-1.768-1.052-1.768-2.309 0-1.253.562-2.318 1.768-2.318 1.198 0 1.76 1.065 1.76 2.318 0 1.257-.562 2.309-1.76 2.309zm4.469.938h1.274v-3.997c0-.857.661-1.475 1.564-1.475.265 0 .563.047.665.077v-1.219a5.198 5.198 0 00-.541-.029c-.767 0-1.423.434-1.662 1.137h-.068v-1.039h-1.232V526z"/>
  <defs>
    <linearGradient id="paint0_linear" x1="127.5" x2="103.179" y1="233" y2="168.42" gradientUnits="userSpaceOnUse">
      <stop offset=".141" stop-color="#2F66F7"/>
      <stop offset=".974" stop-color="#4D7BF4" stop-opacity="0"/>
    </linearGradient>
    <linearGradient id="paint1_linear" x1="197" x2="226.859" y1="377" y2="441.281" gradientUnits="userSpaceOnUse">
      <stop offset=".141" stop-color="#2F66F7"/>
      <stop offset=".974" stop-color="#4D7BF4" stop-opacity="0"/>
    </linearGradient>
    <linearGradient id="paint2_linear" x1="123" x2="93.141" y1="377" y2="441.281" gradientUnits="userSpaceOnUse">
      <stop offset=".141" stop-color="#2F66F7"/>
      <stop offset=".974" stop-color="#4D7BF4" stop-opacity="0"/>
    </linearGradient>
    <linearGradient id="paint3_linear" x1="197" x2="224.704" y1="233" y2="167.491" gradientUnits="userSpaceOnUse">
      <stop offset=".141" stop-color="#2F66F7"/>
      <stop offset=".974" stop-color="#4D7BF4" stop-opacity="0"/>
    </linearGradient>
    <linearGradient id="paint4_linear" x1="123" x2="76" y1="241" y2="168" gradientUnits="userSpaceOnUse">
      <stop stop-color="#0B4CFF"/>
      <stop offset="1" stop-color="#88A2FF"/>
    </linearGradient>
    <linearGradient id="paint5_linear" x1="197" x2="244" y1="241" y2="168" gradientUnits="userSpaceOnUse">
      <stop stop-color="#0B4CFF"/>
      <stop offset="1" stop-color="#88A2FF"/>
    </linearGradient>
    <linearGradient id="paint6_linear" x1="21.393" x2="106.279" y1="0" y2="191.706" gradientUnits="userSpaceOnUse">
      <stop stop-color="#DCE4FF"/>
      <stop offset=".855" stop-color="#EEF2FF"/>
    </linearGradient>
    <linearGradient id="paint7_linear" x1="189.393" x2="274.279" y1="0" y2="191.706" gradientUnits="userSpaceOnUse">
      <stop stop-color="#DCE4FF"/>
      <stop offset=".855" stop-color="#EEF2FF"/>
    </linearGradient>
    <linearGradient id="paint8_linear" x1="197" x2="244" y1="377" y2="433" gradientUnits="userSpaceOnUse">
      <stop stop-color="#0B4CFF"/>
      <stop offset="1" stop-color="#88A2FF"/>
    </linearGradient>
    <linearGradient id="paint9_linear" x1="123" x2="76" y1="377" y2="433.5" gradientUnits="userSpaceOnUse">
      <stop stop-color="#0B4CFF"/>
      <stop offset="1" stop-color="#88A2FF"/>
    </linearGradient>
    <linearGradient id="paint10_linear" x1="45.037" x2="76.817" y1="232" y2="415.4" gradientUnits="userSpaceOnUse">
      <stop stop-color="#DCE4FF"/>
      <stop offset=".855" stop-color="#EEF2FF"/>
    </linearGradient>
    <linearGradient id="paint11_linear" x1="160" x2="160" y1="252" y2="328" gradientUnits="userSpaceOnUse">
      <stop stop-color="#FAFBFF"/>
      <stop offset="1" stop-color="#fff"/>
    </linearGradient>
    <linearGradient id="paint12_linear" x1="365.037" x2="388.462" y1="557" y2="715.076" gradientUnits="userSpaceOnUse">
      <stop stop-color="#DCE4FF"/>
      <stop offset=".855" stop-color="#EEF2FF"/>
    </linearGradient>
    <filter id="filter0_d" width="138" height="58" x="7" y="118" color-interpolation-filters="sRGB" filterUnits="userSpaceOnUse">
      <feFlood flood-opacity="0" result="BackgroundImageFix"/>
      <feColorMatrix in="SourceAlpha" type="matrix" values="0 0 0 0 0 0 0 0 0 0 0 0 0 0 0 0 0 0 127 0"/>
      <feMorphology in="SourceAlpha" operator="erode" radius="11" result="effect1_dropShadow"/>
      <feOffset dy="7"/>
      <feGaussianBlur stdDeviation="10"/>
      <feColorMatrix type="matrix" values="0 0 0 0 0.333333 0 0 0 0 0.427451 0 0 0 0 0.894118 0 0 0 0.5 0"/>
      <feBlend in2="BackgroundImageFix" mode="normal" result="effect1_dropShadow"/>
      <feBlend in="SourceGraphic" in2="effect1_dropShadow" mode="normal" result="shape"/>
    </filter>
    <filter id="filter1_d" width="138" height="82" x="175" y="14" color-interpolation-filters="sRGB" filterUnits="userSpaceOnUse">
      <feFlood flood-opacity="0" result="BackgroundImageFix"/>
      <feColorMatrix in="SourceAlpha" type="matrix" values="0 0 0 0 0 0 0 0 0 0 0 0 0 0 0 0 0 0 127 0"/>
      <feMorphology in="SourceAlpha" operator="erode" radius="11" result="effect1_dropShadow"/>
      <feOffset dy="7"/>
      <feGaussianBlur stdDeviation="10"/>
      <feColorMatrix type="matrix" values="0 0 0 0 0.333333 0 0 0 0 0.427451 0 0 0 0 0.894118 0 0 0 0.5 0"/>
      <feBlend in2="BackgroundImageFix" mode="normal" result="effect1_dropShadow"/>
      <feBlend in="SourceGraphic" in2="effect1_dropShadow" mode="normal" result="shape"/>
    </filter>
    <filter id="filter2_d" width="138" height="82" x="175" y="94" color-interpolation-filters="sRGB" filterUnits="userSpaceOnUse">
      <feFlood flood-opacity="0" result="BackgroundImageFix"/>
      <feColorMatrix in="SourceAlpha" type="matrix" values="0 0 0 0 0 0 0 0 0 0 0 0 0 0 0 0 0 0 127 0"/>
      <feMorphology in="SourceAlpha" operator="erode" radius="11" result="effect1_dropShadow"/>
      <feOffset dy="7"/>
      <feGaussianBlur stdDeviation="10"/>
      <feColorMatrix type="matrix" values="0 0 0 0 0.333333 0 0 0 0 0.427451 0 0 0 0 0.894118 0 0 0 0.5 0"/>
      <feBlend in2="BackgroundImageFix" mode="normal" result="effect1_dropShadow"/>
      <feBlend in="SourceGraphic" in2="effect1_dropShadow" mode="normal" result="shape"/>
    </filter>
    <filter id="random_1" width="138" height="58" x="7" y="66" color-interpolation-filters="sRGB" filterUnits="userSpaceOnUse">
      <feFlood flood-opacity="0" result="BackgroundImageFix"/>
      <feColorMatrix in="SourceAlpha" type="matrix" values="0 0 0 0 0 0 0 0 0 0 0 0 0 0 0 0 0 0 127 0"/>
      <feMorphology in="SourceAlpha" operator="erode" radius="11" result="effect1_dropShadow"/>
      <feOffset dy="7"/>
      <feGaussianBlur stdDeviation="10"/>
      <feColorMatrix type="matrix" values="0 0 0 0 0.333333 0 0 0 0 0.427451 0 0 0 0 0.894118 0 0 0 0.5 0"/>
      <feBlend in2="BackgroundImageFix" mode="normal" result="effect1_dropShadow"/>
      <feBlend in="SourceGraphic" in2="effect1_dropShadow" mode="normal" result="shape"/>
    </filter>
    <filter id="random_2" width="138" height="58" x="7" y="14" color-interpolation-filters="sRGB" filterUnits="userSpaceOnUse">
      <feFlood flood-opacity="0" result="BackgroundImageFix"/>
      <feColorMatrix in="SourceAlpha" type="matrix" values="0 0 0 0 0 0 0 0 0 0 0 0 0 0 0 0 0 0 127 0"/>
      <feMorphology in="SourceAlpha" operator="erode" radius="11" result="effect1_dropShadow"/>
      <feOffset dy="7"/>
      <feGaussianBlur stdDeviation="10"/>
      <feColorMatrix type="matrix" values="0 0 0 0 0.333333 0 0 0 0 0.427451 0 0 0 0 0.894118 0 0 0 0.5 0"/>
      <feBlend in2="BackgroundImageFix" mode="normal" result="effect1_dropShadow"/>
      <feBlend in="SourceGraphic" in2="effect1_dropShadow" mode="normal" result="shape"/>
    </filter>
    <filter id="random_6" width="306" height="102" x="7" y="248" color-interpolation-filters="sRGB" filterUnits="userSpaceOnUse">
      <feFlood flood-opacity="0" result="BackgroundImageFix"/>
      <feColorMatrix in="SourceAlpha" type="matrix" values="0 0 0 0 0 0 0 0 0 0 0 0 0 0 0 0 0 0 127 0"/>
      <feMorphology in="SourceAlpha" operator="erode" radius="5" result="effect1_dropShadow"/>
      <feOffset dy="9"/>
      <feGaussianBlur stdDeviation="9"/>
      <feColorMatrix type="matrix" values="0 0 0 0 0.333333 0 0 0 0 0.427451 0 0 0 0 0.894118 0 0 0 0.3 0"/>
      <feBlend in2="BackgroundImageFix" mode="normal" result="effect1_dropShadow"/>
      <feBlend in="SourceGraphic" in2="effect1_dropShadow" mode="normal" result="shape"/>
    </filter>
    <filter id="random_7" width="156" height="58" x="7" y="500" color-interpolation-filters="sRGB" filterUnits="userSpaceOnUse">
      <feFlood flood-opacity="0" result="BackgroundImageFix"/>
      <feColorMatrix in="SourceAlpha" type="matrix" values="0 0 0 0 0 0 0 0 0 0 0 0 0 0 0 0 0 0 127 0"/>
      <feMorphology in="SourceAlpha" operator="erode" radius="11" result="effect1_dropShadow"/>
      <feOffset dy="7"/>
      <feGaussianBlur stdDeviation="10"/>
      <feColorMatrix type="matrix" values="0 0 0 0 0.333333 0 0 0 0 0.427451 0 0 0 0 0.894118 0 0 0 0.5 0"/>
      <feBlend in2="BackgroundImageFix" mode="normal" result="effect1_dropShadow"/>
      <feBlend in="SourceGraphic" in2="effect1_dropShadow" mode="normal" result="shape"/>
    </filter>
    <filter id="random_8" width="306" height="58" x="7" y="448" color-interpolation-filters="sRGB" filterUnits="userSpaceOnUse">
      <feFlood flood-opacity="0" result="BackgroundImageFix"/>
      <feColorMatrix in="SourceAlpha" type="matrix" values="0 0 0 0 0 0 0 0 0 0 0 0 0 0 0 0 0 0 127 0"/>
      <feMorphology in="SourceAlpha" operator="erode" radius="11" result="effect1_dropShadow"/>
      <feOffset dy="7"/>
      <feGaussianBlur stdDeviation="10"/>
      <feColorMatrix type="matrix" values="0 0 0 0 0.333333 0 0 0 0 0.427451 0 0 0 0 0.894118 0 0 0 0.5 0"/>
      <feBlend in2="BackgroundImageFix" mode="normal" result="effect1_dropShadow"/>
      <feBlend in="SourceGraphic" in2="effect1_dropShadow" mode="normal" result="shape"/>
    </filter>
    <filter id="random9_9" width="156" height="58" x="157" y="500" color-interpolation-filters="sRGB" filterUnits="userSpaceOnUse">
      <feFlood flood-opacity="0" result="BackgroundImageFix"/>
      <feColorMatrix in="SourceAlpha" type="matrix" values="0 0 0 0 0 0 0 0 0 0 0 0 0 0 0 0 0 0 127 0"/>
      <feMorphology in="SourceAlpha" operator="erode" radius="11" result="effect1_dropShadow"/>
      <feOffset dy="7"/>
      <feGaussianBlur stdDeviation="10"/>
      <feColorMatrix type="matrix" values="0 0 0 0 0.333333 0 0 0 0 0.427451 0 0 0 0 0.894118 0 0 0 0.5 0"/>
      <feBlend in2="BackgroundImageFix" mode="normal" result="effect1_dropShadow"/>
      <feBlend in="SourceGraphic" in2="effect1_dropShadow" mode="normal" result="shape"/>
    </filter>
  </defs>
</svg>