<svg id="Layer_1" data-name="Layer 1" xmlns="http://www.w3.org/2000/svg" xmlns:xlink="http://www.w3.org/1999/xlink" viewBox="0 0 164.26 164.26"><defs><style>.cls-1,.cls-3{fill:#fff;}.cls-1,.cls-4{stroke:#be1e2d;stroke-miterlimit:10;}.cls-1{stroke-width:10px;}.cls-2{fill:url(#linear-gradient);}.cls-4{fill:none;stroke-width:2px;}</style><linearGradient id="linear-gradient" x1="39.52" y1="48.83" x2="126.66" y2="170.88" gradientUnits="userSpaceOnUse"><stop offset="0" stop-color="#ed1c24"/><stop offset="1" stop-color="#be1e2d"/></linearGradient></defs><circle class="cls-1" cx="82.13" cy="82.13" r="76.99"/><path class="cls-2" d="M108,79.22c-37.24,0-67.43,29.31-67.43,65.47S70.72,210.16,108,210.16s67.42-29.31,67.42-65.47S145.2,79.22,108,79.22Zm-47,82.06H48.37V131.44h2.27V159H60.92c7.24,0,13.13-6.86,13.13-15.3s-5.89-15.32-13.13-15.32H48.37v-2.27H60.92c8.49,0,15.4,7.89,15.4,17.59S69.42,161.28,60.93,161.28Zm83,27.47H95.64v-6.13h2.3v-4.77h8.24l2.18-3.88L97.94,164l6.73-6.4c-5.81-5.93-9.74-19.2-4.87-29.41s11.62-13,11.62-13-1.41-5.18,4.87-7.38v6.4s20.58,14.81,21.36,15.28,2,6.91,2,6.91l-4.47,6.12s-5.34-3-6.13-3.29-6,.62-6,.62l-3.26,1.89s21.44,21.52,21.85,22S131.21,174,131.21,174l2.18,3.88h8.25v4.77h2.3Zm19.61-27.93-8.37-15.3H147.9v15.74h-2.27V131.44h2.27v11.81h7.84a7.45,7.45,0,1,0-.05-14.87H145.63v-2.27h10.05a9.94,9.94,0,0,1,10.16,9.7,9.45,9.45,0,0,1-2.76,6.65,10.28,10.28,0,0,1-5.41,2.87l8.1,14.69.69,1.24h-2.68Z" transform="translate(-25.83 -62.56)"/><path class="cls-3" d="M75.26,176.21v-4.77H83.5l2.18-3.89s-10.84-9.82-10.42-10.29,21.85-22,21.85-22l-3.26-1.88s-5.18-.94-6-.63-6.13,3.3-6.13,3.3l-4.47-6.13s1.18-6.44,2-6.91,21.36-15.27,21.36-15.27v-6.4c6.28,2.2,4.87,7.38,4.87,7.38s6.75,2.83,11.62,13,1,23.48-4.87,29.41l6.74,6.4-10.43,10,2.18,3.89H119v4.77h2.3v6.12H73v-6.12Z" transform="translate(-25.83 -62.56)"/><circle class="cls-4" cx="82.13" cy="82.13" r="81.13"/></svg>